HIERARCHY
ROOT Base
{
  OFFSET -2.77734 -2.29426 -1.2751
  CHANNELS 6 Xposition Yposition Zposition Zrotation Xrotation Yrotation
  JOINT Hips
  {
    OFFSET 0 103.797 1.28397
    CHANNELS 6 Xposition Yposition Zposition Zrotation Xrotation Yrotation
    JOINT Spine
    {
      OFFSET 0 10.1816 0.1315
      CHANNELS 6 Xposition Yposition Zposition Zrotation Xrotation Yrotation
      JOINT Spine1
      {
        OFFSET 0 10.0835 -1.0008
        CHANNELS 6 Xposition Yposition Zposition Zrotation Xrotation Yrotation
        JOINT Spine2
        {
          OFFSET 0 9.1 -1.3734
          CHANNELS 6 Xposition Yposition Zposition Zrotation Xrotation Yrotation
          JOINT Neck1
          {
            OFFSET 0 16.6717 -2.5162
            CHANNELS 6 Xposition Yposition Zposition Zrotation Xrotation Yrotation
            JOINT Neck2
            {
              OFFSET 0 9.6179 1.685
              CHANNELS 6 Xposition Yposition Zposition Zrotation Xrotation Yrotation
              JOINT Skull
              {
                OFFSET 0 7.59293 2.585
                CHANNELS 6 Xposition Yposition Zposition Zrotation Xrotation Yrotation
                JOINT LeftEye
                {
                  OFFSET 3.0676 -1.18343 6.6986
                  CHANNELS 6 Xposition Yposition Zposition Zrotation Xrotation Yrotation
                  End Site
                  {
                    OFFSET 0 0 0
                  }
                }
                JOINT RightEye
                {
                  OFFSET -3.0676 -1.18343 6.6985
                  CHANNELS 6 Xposition Yposition Zposition Zrotation Xrotation Yrotation
                  End Site
                  {
                    OFFSET 0 0 0
                  }
                }
              }
            }
          }
          JOINT LeftShoulder
          {
            OFFSET 4.5704 10.946 -2.628
            CHANNELS 6 Xposition Yposition Zposition Zrotation Xrotation Yrotation
            JOINT LeftArm
            {
              OFFSET 10.5924 -0.5246 -2.2321
              CHANNELS 6 Xposition Yposition Zposition Zrotation Xrotation Yrotation
              JOINT LeftForeArm
              {
                OFFSET 27.8415 -0.0001 0
                CHANNELS 6 Xposition Yposition Zposition Zrotation Xrotation Yrotation
                JOINT LeftHand
                {
                  OFFSET 28.3288 0 0
                  CHANNELS 6 Xposition Yposition Zposition Zrotation Xrotation Yrotation
                  JOINT LeftHandThumb1
                  {
                    OFFSET 2.4661 -1.575 2.6824
                    CHANNELS 6 Xposition Yposition Zposition Zrotation Xrotation Yrotation
                    JOINT LeftHandThumb2
                    {
                      OFFSET 3.2298 -1.8647 1.8647
                      CHANNELS 6 Xposition Yposition Zposition Zrotation Xrotation Yrotation
                      End Site
                      {
                        OFFSET 2.6526 -1.5315 1.5315
                      }
                    }
                  }
                  JOINT LeftHandIndex1
                  {
                    OFFSET 9.1093 -0.5171 2.2601
                    CHANNELS 6 Xposition Yposition Zposition Zrotation Xrotation Yrotation
                    JOINT LeftHandIndex2
                    {
                      OFFSET 3.6764 0 0
                      CHANNELS 6 Xposition Yposition Zposition Zrotation Xrotation Yrotation
                      End Site
                      {
                        OFFSET 2.8831 0 0
                      }
                    }
                  }
                  JOINT LeftHandMiddle1
                  {
                    OFFSET 9.5334 0 0
                    CHANNELS 6 Xposition Yposition Zposition Zrotation Xrotation Yrotation
                    JOINT LeftHandMiddle2
                    {
                      OFFSET 3.6982 0 0
                      CHANNELS 6 Xposition Yposition Zposition Zrotation Xrotation Yrotation
                      End Site
                      {
                        OFFSET 2.9509 0 0
                      }
                    }
                  }
                  JOINT LeftHandRing1
                  {
                    OFFSET 9.1045 -0.0439 -1.8651
                    CHANNELS 6 Xposition Yposition Zposition Zrotation Xrotation Yrotation
                    JOINT LeftHandRing2
                    {
                      OFFSET 3.154 0 0
                      CHANNELS 6 Xposition Yposition Zposition Zrotation Xrotation Yrotation
                      End Site
                      {
                        OFFSET 2.9377 0 0
                      }
                    }
                  }
                  JOINT LeftHandPinky1
                  {
                    OFFSET 8.0778 -0.4887 -3.8061
                    CHANNELS 6 Xposition Yposition Zposition Zrotation Xrotation Yrotation
                    JOINT LeftHandPinky2
                    {
                      OFFSET 3.6 0 0
                      CHANNELS 6 Xposition Yposition Zposition Zrotation Xrotation Yrotation
                      End Site
                      {
                        OFFSET 2.1142 0 0
                      }
                    }
                  }
                }
              }
            }
          }
          JOINT RightShoulder
          {
            OFFSET -4.57 10.9462 -2.628
            CHANNELS 6 Xposition Yposition Zposition Zrotation Xrotation Yrotation
            JOINT RightArm
            {
              OFFSET -10.5928 -0.5248 -2.2321
              CHANNELS 6 Xposition Yposition Zposition Zrotation Xrotation Yrotation
              JOINT RightForeArm
              {
                OFFSET -27.8415 0 0
                CHANNELS 6 Xposition Yposition Zposition Zrotation Xrotation Yrotation
                JOINT RightHand
                {
                  OFFSET -28.3288 0 0.0001
                  CHANNELS 6 Xposition Yposition Zposition Zrotation Xrotation Yrotation
                  JOINT RightHandPinky1
                  {
                    OFFSET -8.0767 -0.4885 -3.806
                    CHANNELS 6 Xposition Yposition Zposition Zrotation Xrotation Yrotation
                    JOINT RightHandPinky2
                    {
                      OFFSET -3.6 0 0.0001
                      CHANNELS 6 Xposition Yposition Zposition Zrotation Xrotation Yrotation
                      End Site
                      {
                        OFFSET -2.1142 0 0
                      }
                    }
                  }
                  JOINT RightHandRing1
                  {
                    OFFSET -9.1036 -0.0439 -1.8651
                    CHANNELS 6 Xposition Yposition Zposition Zrotation Xrotation Yrotation
                    JOINT RightHandRing2
                    {
                      OFFSET -3.154 0 0
                      CHANNELS 6 Xposition Yposition Zposition Zrotation Xrotation Yrotation
                      End Site
                      {
                        OFFSET -2.9377 0 0
                      }
                    }
                  }
                  JOINT RightHandMiddle1
                  {
                    OFFSET -9.5325 0 0
                    CHANNELS 6 Xposition Yposition Zposition Zrotation Xrotation Yrotation
                    JOINT RightHandMiddle2
                    {
                      OFFSET -3.6982 0 0
                      CHANNELS 6 Xposition Yposition Zposition Zrotation Xrotation Yrotation
                      End Site
                      {
                        OFFSET -2.9509 0 0
                      }
                    }
                  }
                  JOINT RightHandIndex1
                  {
                    OFFSET -9.1083 -0.5168 2.2601
                    CHANNELS 6 Xposition Yposition Zposition Zrotation Xrotation Yrotation
                    JOINT RightHandIndex2
                    {
                      OFFSET -3.6764 0 0
                      CHANNELS 6 Xposition Yposition Zposition Zrotation Xrotation Yrotation
                      End Site
                      {
                        OFFSET -2.8831 0 0
                      }
                    }
                  }
                  JOINT RightHandThumb1
                  {
                    OFFSET -2.4648 -1.5727 2.6826
                    CHANNELS 6 Xposition Yposition Zposition Zrotation Xrotation Yrotation
                    JOINT RightHandThumb2
                    {
                      OFFSET -3.2298 -1.8647 1.8647
                      CHANNELS 6 Xposition Yposition Zposition Zrotation Xrotation Yrotation
                      End Site
                      {
                        OFFSET -2.6526 -1.5314 1.5314
                      }
                    }
                  }
                }
              }
            }
          }
        }
      }
    }
    JOINT LeftUpLeg
    {
      OFFSET 8.2078 -6.7517 -1.5996
      CHANNELS 6 Xposition Yposition Zposition Zrotation Xrotation Yrotation
      JOINT LeftLeg
      {
        OFFSET 0 -44.3705 0.2846
        CHANNELS 6 Xposition Yposition Zposition Zrotation Xrotation Yrotation
        JOINT LeftFoot
        {
          OFFSET 0 -44.4279 -2.9822
          CHANNELS 6 Xposition Yposition Zposition Zrotation Xrotation Yrotation
          End Site
          {
            OFFSET 0 -8.7287 10.7106
          }
        }
      }
    }
    JOINT RightUpLeg
    {
      OFFSET -8.2078 -6.7517 -1.5996
      CHANNELS 6 Xposition Yposition Zposition Zrotation Xrotation Yrotation
      JOINT RightLeg
      {
        OFFSET 0 -44.3705 0.2862
        CHANNELS 6 Xposition Yposition Zposition Zrotation Xrotation Yrotation
        JOINT RightFoot
        {
          OFFSET 0 -44.4277 -2.9838
          CHANNELS 6 Xposition Yposition Zposition Zrotation Xrotation Yrotation
          End Site
          {
            OFFSET 0 -8.7287 10.7106
          }
        }
      }
    }
  }
}
MOTION
Frames:	4
Frame Time:	0.0416667
-0.00806025 -4.30101 -11.0909 -2.73945 8.45097 -7.61151 6.66134e-016 103.797 1.28397 5.96354e-016 3.18055e-015 -3.18055e-015 8.88178e-016 10.1816 0.1315 3.27311 9.39976 7.83263 0 10.0835 -1.0008 -2.50016 1.44892 1.18347 -8.88178e-016 9.1 -1.3734 -2.49544 1.49045 1.14006 1.55431e-015 16.6717 -2.5162 1.13217 -0.224847 -0.272425 -4.44089e-016 9.6179 1.685 1.13217 -0.224867 -0.272426 -8.88178e-016 7.59293 2.585 1.13217 -0.224836 -0.272434 3.0676 -1.18343 6.6986 1.49089e-016 -3.18055e-015 1.98785e-016 -3.0676 -1.18343 6.6985 1.49089e-016 -3.18055e-015 1.98785e-016 4.5704 10.946 -2.628 5.35847 -0.711459 8.48231 10.5924 -0.5246 -2.2321 -138.434 60.8258 66.5801 27.8415 -0.0001 1.42109e-014 -0.000202712 -4.56171e-006 -27.6629 28.3288 0 0 -34.0608 27.0806 6.11054 2.4661 -1.575 2.6824 3.82228 -1.32194 1.27526 3.2298 -1.8647 1.8647 0.739164 4.04322 7.89737 9.1093 -0.5171 2.2601 -2.75664 0.0379027 -6.7272 3.6764 0 0 -0.0136486 -3.19061e-006 0.00164584 9.5334 0 0 -2.24143 -0.002504 -2.55884 3.6982 -1.42109e-014 0 -0.0190604 -7.93255e-006 0.00226959 9.1045 -0.0439 -1.8651 -1.66978 -0.00419042 2.32761 3.154 0 -1.77636e-015 -0.0136098 6.46368e-006 0.00163742 8.0778 -0.4887 -3.8061 -0.83872 0.0795447 9.10083 3.6 -2.84217e-014 8.88178e-016 -0.50861 0.01803 -4.0544 -4.57 10.9462 -2.628 -0.189141 5.01608 8.17498 -10.5928 -0.5248 -2.2321 31.6068 45.7581 50.3831 -27.8415 0 -3.55271e-015 -4.15399e-006 6.09133e-006 109.644 -28.3288 0 0.0001 -1.50515 23.888 -12.9069 -8.0767 -0.4885 -3.806 5.3261 1.68307 -6.88103 -3.6 1.42109e-014 0.0001 17.418 1.44231 -1.56789 -9.1036 -0.0439 -1.8651 5.78387 1.64819 -1.88659 -3.154 0 -1.42109e-014 17.4181 1.44204 -1.56936 -9.5325 0 0 5.8919 1.64576 -0.711783 -3.6982 -1.42109e-014 0 17.4181 1.44203 -1.56935 -9.1083 -0.5168 2.2601 6.18898 1.65041 2.51894 -3.6764 0 1.42109e-014 17.4181 1.44204 -1.56936 -2.4648 -1.5727 2.6826 -6.58323 -1.43646 -3.76368 -3.2298 -1.8647 1.8647 -0.219587 4.67208 -8.61486 8.2078 -6.7517 -1.5996 4.39951 -54.8873 -1.08826 -1.77636e-015 -44.3705 0.2846 179.233 69.6289 -169.695 -3.55271e-015 -44.4279 -2.9822 -11.1408 9.04055 3.47431 -8.2078 -6.7517 -1.5996 5.32968 -30.2109 -9.08221 -8.88178e-016 -44.3705 0.2862 15.8116 47.1526 -8.41766 0 -44.4277 -2.9838 3.47569 -0.173183 -0.87615 
-6.29968 -2.48405 -4.9582 -4.34257 5.98989 -6.29002 -8.88178e-016 103.797 1.28397 1.39149e-015 7.95139e-016 -7.95139e-016 8.88178e-016 10.1816 0.1315 2.60359 10.5411 9.23821 0 10.0835 -1.0008 -1.88475 1.11257 1.35992 4.44089e-016 9.1 -1.3734 -1.88889 1.14987 1.32325 0 16.6717 -2.5162 0.79987 -0.353676 -0.403549 8.88178e-016 9.6179 1.685 0.79987 -0.35368 -0.40355 -4.44089e-016 7.59293 2.585 0.799873 -0.353662 -0.403567 3.0676 -1.18343 6.6986 -1.98785e-016 0 -7.95139e-016 -3.0676 -1.18343 6.6985 -1.98785e-016 0 -7.95139e-016 4.5704 10.946 -2.628 6.37707 -0.576103 7.93678 10.5924 -0.5246 -2.2321 -127.164 59.0664 62.4878 27.8415 -0.0001 -1.42109e-014 -0.000214788 6.54944e-006 -28.972 28.3288 0 -7.10543e-015 -36.4025 23.5197 9.45598 2.4661 -1.575 2.6824 6.13846 -1.1463 3.82722 3.2298 -1.8647 1.8647 0.739164 4.04322 7.89737 9.1093 -0.5171 2.2601 -0.704703 0.0361475 -5.87181 3.6764 0 -1.77636e-015 -0.0991637 -1.60865e-005 0.0118984 9.5334 1.42109e-014 0 0.0159844 9.56062e-007 -0.0019139 3.6982 2.84217e-014 0 -0.115133 -1.15294e-005 0.0138283 9.1045 -0.0439 -1.8651 0.4233 0.0130262 3.52318 3.154 1.42109e-014 -3.55271e-015 -0.0991534 -1.6862e-005 0.0119001 8.0778 -0.4887 -3.8061 1.31228 0.125364 10.8064 3.6 1.42109e-014 0 -0.606861 0.0249829 -4.04252 -4.57 10.9462 -2.628 -2.09446 5.18511 10.0719 -10.5928 -0.5248 -2.2321 30.6742 39.5934 51.4254 -27.8415 0 3.55271e-015 1.36833e-005 6.75253e-006 116.266 -28.3288 -7.10543e-015 0.0001 -0.249803 23.0273 -11.5461 -8.0767 -0.4885 -3.806 5.3261 1.68307 -6.88103 -3.6 0 0.0001 17.418 1.4423 -1.5679 -9.1036 -0.0439 -1.8651 5.78387 1.64819 -1.88659 -3.154 -1.42109e-014 -2.84217e-014 17.4181 1.44203 -1.56935 -9.5325 0 0 5.8919 1.64576 -0.711783 -3.6982 0 -1.42109e-014 17.4181 1.44204 -1.56935 -9.1083 -0.5168 2.2601 6.18898 1.65041 2.51894 -3.6764 0 -1.42109e-014 17.4181 1.44204 -1.56935 -2.4648 -1.5727 2.6826 -6.58323 -1.43646 -3.76368 -3.2298 -1.8647 1.8647 -0.219587 4.67208 -8.61486 8.2078 -6.7517 -1.5996 9.95621 -47.5777 -2.16336 0 -44.3705 0.2846 178.743 76.2468 -168.758 -3.55271e-015 -44.4279 -2.9822 -7.90572 10.5825 3.02227 -8.2078 -6.7517 -1.5996 -0.629243 -28.6387 -12.1559 8.88178e-016 -44.3705 0.2862 15.5576 47.6117 -4.39027 -8.88178e-016 -44.4277 -2.9838 17.7452 6.85173 -0.757037 
-11.1599 -1.56668 1.62313 -4.97287 3.29718 -3.83727 -3.55271e-015 103.797 1.28397 -1.78906e-015 0 -0 1.77636e-015 10.1816 0.1315 1.6225 12.018 10.4623 0 10.0835 -1.0008 -1.43436 -0.0221285 1.4895 8.88178e-016 9.1 -1.3734 -1.46557 0.0101276 1.45929 0 16.6717 -2.5162 -0.0122144 0.548313 -0.493247 0 9.6179 1.685 -0.0122204 0.548314 -0.493246 0 7.59293 2.585 -0.0121994 0.548356 -0.493264 3.0676 -1.18343 6.6986 3.97569e-016 0 -0 -3.0676 -1.18343 6.6985 3.97569e-016 0 -0 4.5704 10.946 -2.628 7.27381 -0.493271 7.44778 10.5924 -0.5246 -2.2321 -112.883 58.9513 57.6351 27.8415 -0.0001 0 -0.000204089 -5.04124e-006 -26.2246 28.3288 -1.42109e-014 0 -37.7251 21.3916 14.3491 2.4661 -1.575 2.6824 6.13846 -1.1463 3.8272 3.2298 -1.8647 1.8647 0.739164 4.04322 7.89737 9.1093 -0.5171 2.2601 -0.704702 0.0361427 -5.87183 3.6764 0 -7.10543e-015 -0.0145586 4.05472e-006 0.00174627 9.5334 1.42109e-014 0 0.0159855 3.45011e-007 -0.00192397 3.6982 1.42109e-014 -7.10543e-015 -0.0272101 -4.7232e-007 0.00327572 9.1045 -0.0439 -1.8651 0.42331 0.0130177 3.52317 3.154 -1.42109e-014 0 -0.0145193 -1.52684e-006 0.00174833 8.0778 -0.4887 -3.8061 1.31229 0.125362 10.8064 3.6 0 0 -0.518275 0.0187114 -4.05325 -4.57 10.9462 -2.628 -3.88511 5.23487 11.8226 -10.5928 -0.5248 -2.2321 32.6667 30.4798 48.076 -27.8415 -1.42109e-014 0 -1.38263e-005 -1.30107e-005 114.82 -28.3288 0 0.0001 0.38881 18.564 -8.49333 -8.0767 -0.4885 -3.806 5.3261 1.68307 -6.88103 -3.6 0 0.0001 17.418 1.4423 -1.56789 -9.1036 -0.0439 -1.8651 5.78387 1.64819 -1.88659 -3.154 0 0 17.4181 1.44203 -1.56935 -9.5325 1.42109e-014 7.10543e-015 5.8919 1.64576 -0.711783 -3.6982 -1.42109e-014 1.42109e-014 17.4181 1.44204 -1.56935 -9.1083 -0.5168 2.2601 6.18898 1.65041 2.51894 -3.6764 -1.42109e-014 0 17.4181 1.44204 -1.56935 -2.4648 -1.5727 2.6826 -6.58323 -1.43646 -3.76368 -3.2298 -1.8647 1.8647 -0.219587 4.67208 -8.61486 8.2078 -6.7517 -1.5996 20.0824 -36.5629 -0.777545 0 -44.3705 0.2846 2.28094 85.97 7.97441 0 -44.4279 -2.9822 -0.322673 11.2174 -1.10548 -8.2078 -6.7517 -1.5996 -5.90407 -24.37 -13.0027 0 -44.3705 0.2862 11.5468 41.0073 -6.12787 3.55271e-015 -44.4277 -2.9838 9.50206 4.29448 -1.22369 
-17.2673 -0.86956 5.45858 -6.03065 2.22536 0.54467 3.55271e-015 103.797 1.28397 2.26739e-016 -7.95139e-016 -9.93923e-017 -3.55271e-015 10.1816 0.1315 2.00436 10.8658 10.4921 0 10.0835 -1.0008 -0.872757 -0.32798 1.4658 0 9.1 -1.3734 -0.906876 -0.304685 1.44991 0 16.6717 -2.5162 -1.09606 1.22397 -0.507433 0 9.6179 1.685 -1.09607 1.22403 -0.507438 3.55271e-015 7.59293 2.585 -1.09601 1.22409 -0.507425 3.0676 -1.18343 6.6986 7.95139e-016 3.18055e-015 4.77083e-015 -3.0676 -1.18343 6.6985 7.95139e-016 3.18055e-015 4.77083e-015 4.5704 10.946 -2.628 8.20221 -0.372858 6.74298 10.5924 -0.5246 -2.2321 -90.7062 56.7121 42.356 27.8415 -0.0001 -1.42109e-014 -0.00021378 -6.54633e-006 -16.528 28.3288 2.66454e-015 0 -37.481 20.9186 18.2878 2.4661 -1.575 2.6824 6.13845 -1.1463 3.8272 3.2298 -1.8647 1.8647 0.739164 4.04322 7.89737 9.1093 -0.5171 2.2601 -0.704709 0.0361463 -5.87185 3.6764 0 0 0.00185757 3.57967e-006 -0.000221742 9.5334 1.42109e-014 -1.42109e-014 0.015986 -4.14588e-007 -0.00192205 3.6982 -1.42109e-014 1.42109e-014 0.00207124 -2.11172e-006 -0.000282412 9.1045 -0.0439 -1.8651 0.423301 0.0130228 3.52315 3.154 -1.42109e-014 -1.42109e-014 0.00193547 1.48267e-006 -0.000225036 8.0778 -0.4887 -3.8061 1.31229 0.125371 10.8064 3.6 0 -1.42109e-014 -0.486536 0.0164611 -4.05709 -4.57 10.9462 -2.628 -5.87422 4.87589 12.7994 -10.5928 -0.5248 -2.2321 30.8219 23.8426 46.9833 -27.8415 -1.42109e-014 0 -4.09997e-005 -2.44469e-006 105.131 -28.3288 0 0.0001 1.92159 14.1844 -3.46928 -8.0767 -0.4885 -3.806 5.3261 1.68307 -6.88103 -3.6 0 0.0001 17.418 1.44229 -1.56789 -9.1036 -0.0439 -1.8651 5.78387 1.64819 -1.88659 -3.154 -1.42109e-014 0 17.4181 1.44205 -1.56936 -9.5325 -1.42109e-014 -7.10543e-015 5.8919 1.64576 -0.711783 -3.6982 0 7.10543e-015 17.4181 1.44204 -1.56935 -9.1083 -0.5168 2.2601 6.18898 1.65041 2.51894 -3.6764 -1.42109e-014 0 17.4181 1.44204 -1.56935 -2.4648 -1.5727 2.6826 -6.58323 -1.43646 -3.76368 -3.2298 -1.8647 1.8647 -0.219587 4.67208 -8.61486 8.2078 -6.7517 -1.5996 31.7863 -25.1914 5.16445 -7.10543e-015 -44.3705 0.2846 0.637775 58.0256 6.84361 -7.10543e-015 -44.4279 -2.9822 0.282235 8.39244 -4.82088 -8.2078 -6.7517 -1.5996 -7.4823 -19.3802 -11.6897 3.55271e-015 -44.3705 0.2862 4.44789 28.4768 -10.8742 0 -44.4277 -2.9838 -1.7805 5.25405 -0.646463 
